<svg version="1.1" id="Layer_1" xmlns="http://www.w3.org/2000/svg" xmlns:xlink="http://www.w3.org/1999/xlink" x="0px" y="0px"
	 width="100%" viewBox="0 0 512 512" enable-background="new 0 0 512 512" xml:space="preserve">
<path fill="#000000" opacity="1.000000" stroke="none" 
	d="
M308.000000,513.000000 
	C206.691269,513.000000 105.882507,512.981201 5.073884,513.084167 
	C1.812300,513.087524 0.894103,512.651123 0.896629,509.075684 
	C1.015314,341.116730 1.016622,173.157700 0.892792,5.198786 
	C0.890032,1.455011 1.830551,0.912325 5.299269,0.914351 
	C173.091614,1.012336 340.884003,1.011317 508.676361,0.919933 
	C512.079163,0.918080 513.115112,1.363194 513.112183,5.174397 
	C512.982422,173.133316 512.985291,341.092346 513.100647,509.051300 
	C513.103088,512.576904 512.264771,513.094788 508.950439,513.088867 
	C442.133789,512.970093 375.316864,513.000000 308.000000,513.000000 
z"/>
<path fill="#FFA38D" opacity="1.000000" stroke="none" 
	d="
M101.360825,335.124268 
	C93.929573,323.077728 90.155304,309.896667 87.140915,296.585541 
	C83.726952,281.509888 82.430504,266.130219 82.968742,250.615479 
	C83.707909,229.308655 88.249252,208.837296 96.013657,189.040268 
	C97.308624,185.738449 98.833015,182.526611 100.572525,179.111542 
	C104.279999,179.132721 103.858040,181.793839 104.077911,183.954605 
	C104.321228,186.345856 103.537224,188.864288 105.185455,191.499603 
	C106.129738,194.318024 105.156425,196.473190 104.351616,198.652740 
	C96.065643,221.092560 92.864639,244.328903 94.299683,268.115112 
	C95.160202,282.378418 97.897713,296.396851 102.542404,309.985840 
	C103.717575,313.424011 105.219177,316.808014 105.090118,321.013184 
	C104.390358,323.892914 104.588356,326.304871 104.912590,328.770691 
	C105.267899,331.472748 105.021042,334.098633 101.360825,335.124268 
z"/>
<path fill="#FE6087" opacity="1.000000" stroke="none" 
	d="
M294.656311,78.134819 
	C305.566498,78.283493 315.313171,82.033188 325.170502,85.162842 
	C328.753021,86.300262 328.629059,89.810890 327.612366,92.744576 
	C322.064850,108.751984 316.354034,124.702698 310.726868,140.682602 
	C306.386475,153.008499 302.086578,165.348663 297.442078,177.862183 
	C293.298737,178.955887 293.310883,176.137329 292.934784,173.730148 
	C292.425659,170.471344 294.159393,167.209961 292.818787,163.546326 
	C291.421143,159.127090 293.360291,155.630875 294.615234,152.076218 
	C297.768707,143.143921 301.037781,134.251068 304.023193,125.261353 
	C305.635468,120.406441 305.313538,120.166100 300.491241,118.622604 
	C296.749237,117.424896 292.477051,117.652458 289.151855,114.296654 
	C287.552856,111.132256 287.776337,108.436302 289.774292,105.522263 
	C291.347015,103.573433 293.142242,103.726944 295.006622,103.859795 
	C297.346649,104.026543 299.572571,104.698944 301.821411,105.231232 
	C310.216400,107.218323 313.151337,105.098518 314.302826,96.426178 
	C314.647125,93.833191 313.134155,93.255890 311.341278,92.691620 
	C307.548370,91.497864 303.641876,90.726860 299.813751,89.671547 
	C297.470795,89.025658 294.828064,88.682732 293.588684,85.562515 
	C292.747437,82.792183 292.553070,80.478569 294.656311,78.134819 
z"/>
<path fill="#FE6F88" opacity="1.000000" stroke="none" 
	d="
M271.696350,249.604858 
	C271.373840,254.230026 269.223480,257.909210 267.949280,261.874054 
	C265.845123,268.421478 265.789246,268.403534 272.866882,270.562622 
	C275.328156,272.972198 275.290497,275.593506 274.603943,278.704346 
	C272.743011,281.818146 270.252991,281.295654 267.861572,280.481049 
	C264.589813,279.366669 261.323242,278.221558 257.580688,276.709808 
	C259.437347,281.586121 262.346069,284.643494 267.011444,286.160492 
	C269.176361,286.864441 271.635040,286.805847 273.730225,288.738037 
	C275.405060,291.241516 275.164215,293.740143 275.128052,296.601562 
	C273.527527,300.235077 270.600006,300.163300 267.763428,299.940796 
	C257.368774,299.125336 247.933426,291.196167 245.050842,280.982391 
	C242.204391,270.896667 245.716446,259.471527 254.512772,253.621094 
	C259.232849,250.481781 261.563690,246.514450 263.101929,241.441086 
	C264.087372,238.190994 264.664307,234.523560 268.605225,232.625717 
	C273.250885,234.333572 273.132416,237.950180 272.908508,241.615860 
	C272.750702,244.199356 271.100281,246.516708 271.696350,249.604858 
z"/>
<path fill="#FD3F84" opacity="1.000000" stroke="none" 
	d="
M403.846405,316.749969 
	C411.681488,319.338959 419.200409,321.810577 426.548828,324.804443 
	C431.018585,326.625488 432.395325,328.779388 430.451813,332.991943 
	C424.508057,345.874878 417.009644,357.848206 408.356995,369.071808 
	C405.551727,372.710541 402.225342,375.947571 398.996826,379.678650 
	C396.189514,381.645508 395.029419,379.968475 394.209656,377.804169 
	C393.694153,376.443207 393.961700,374.927246 393.459900,373.167938 
	C392.738708,368.777100 395.831604,366.511444 397.890747,363.881195 
	C404.019165,356.052979 409.589508,347.863129 414.468414,339.214813 
	C417.561493,333.731995 417.282990,333.200836 411.502167,331.170288 
	C407.927734,329.914734 404.159760,329.104614 400.868530,326.308868 
	C398.758820,322.738708 398.292023,319.557159 401.630005,316.392059 
	C402.163971,316.125092 402.330170,316.083710 402.747284,316.097473 
	C403.187347,316.284363 403.376526,316.416138 403.846405,316.749969 
z"/>
<path fill="#FD4785" opacity="1.000000" stroke="none" 
	d="
M401.655640,315.995178 
	C401.592224,319.219940 400.330933,322.263947 401.969910,325.726562 
	C403.737091,328.236145 402.709656,330.325836 401.684814,332.173889 
	C394.712799,344.746429 386.685822,356.548706 376.021057,366.352295 
	C374.538544,367.715057 372.927277,368.945496 370.321655,368.211121 
	C366.907257,365.316193 368.161011,361.922058 368.484924,358.293427 
	C368.452515,355.112946 370.369843,353.391174 371.991638,351.507050 
	C378.089508,344.422638 383.616241,336.924042 388.345978,328.853638 
	C391.005676,324.315369 390.965088,324.217010 385.860260,322.306549 
	C382.429077,321.022400 379.009857,319.707397 375.546753,318.505524 
	C373.354523,317.744690 371.098328,316.971954 369.730225,314.340820 
	C368.943451,311.027222 367.994080,308.040771 371.654175,305.914734 
	C382.182312,308.241577 391.578430,312.534180 401.655640,315.995178 
z"/>
<path fill="#FE6888" opacity="1.000000" stroke="none" 
	d="
M272.001099,249.658905 
	C269.225739,248.903824 270.102905,246.871506 270.501923,244.984756 
	C271.333710,241.051666 271.461151,237.199890 269.122101,233.237976 
	C266.778595,230.896271 267.666046,228.527435 268.435516,226.414749 
	C275.695496,206.480942 282.260254,186.300980 289.701385,166.432068 
	C290.404938,164.553558 291.059113,162.649094 293.556335,161.852234 
	C295.660034,165.258881 294.741028,168.891525 295.015564,172.407730 
	C295.159698,174.253311 294.332184,176.376297 296.742889,177.896774 
	C294.151367,189.142654 289.818787,199.776108 285.988525,210.580490 
	C281.407745,223.501831 276.777710,236.405716 272.001099,249.658905 
z"/>
<path fill="#FE5A87" opacity="1.000000" stroke="none" 
	d="
M305.682404,282.462616 
	C317.556763,286.189758 329.117493,290.212585 340.860657,294.560211 
	C343.582520,297.528595 343.564697,300.334930 341.281494,303.559021 
	C332.125031,308.598419 331.622406,313.846954 339.436035,320.603058 
	C340.578491,321.590942 341.780334,322.467865 342.415253,324.328369 
	C343.268005,327.155243 343.404694,329.593842 342.195160,332.374329 
	C339.651123,335.102112 337.099823,334.074982 334.633301,333.076355 
	C323.818878,328.697937 318.545319,317.424622 321.758270,305.668365 
	C323.220856,300.316833 323.120483,300.551331 317.926147,298.328033 
	C313.303925,296.349609 307.777802,296.133545 304.193542,291.336975 
	C304.122437,288.155792 303.112213,285.196075 305.682404,282.462616 
z"/>
<path fill="#FD5186" opacity="1.000000" stroke="none" 
	d="
M341.161652,333.174622 
	C341.005829,330.150726 341.013916,327.467468 341.031372,324.332916 
	C341.981903,322.216217 343.750641,322.169434 345.301697,321.635895 
	C347.838562,320.763336 350.235107,319.621216 351.760773,317.234039 
	C354.164825,313.472473 353.430084,311.531891 349.466431,309.435822 
	C345.894287,307.546753 341.145874,307.830811 338.824402,303.388672 
	C342.500305,301.467316 340.411621,298.219574 341.033478,295.324707 
	C351.555176,297.540649 361.492920,301.890564 371.930084,305.623779 
	C370.161530,308.415497 371.316467,311.302551 371.013550,314.420349 
	C367.623627,316.117249 365.837921,318.541718 364.390686,321.942108 
	C361.353546,329.077820 355.601746,333.302307 347.879150,334.631714 
	C345.585846,335.026489 343.269226,335.295349 341.161652,333.174622 
z"/>
<path fill="#FD4B86" opacity="1.000000" stroke="none" 
	d="
M393.542175,371.823700 
	C395.793396,372.946960 396.016815,374.699463 396.012970,376.580933 
	C396.009857,378.115234 396.126831,379.614502 398.485107,379.950562 
	C391.230286,389.493225 381.522736,396.659424 371.979431,404.027161 
	C366.210785,408.480743 359.985504,412.189148 353.372406,415.962463 
	C349.257843,414.737488 350.004486,411.315186 349.602295,408.035767 
	C350.053711,405.056824 352.019287,403.734070 353.996246,402.513000 
	C364.333679,396.128113 373.762756,388.558960 382.836700,380.522278 
	C384.824951,378.761292 386.716431,376.909424 388.357513,374.800476 
	C389.586884,373.220581 390.941986,371.725189 393.542175,371.823700 
z"/>
<path fill="#FF9C8C" opacity="1.000000" stroke="none" 
	d="
M100.941360,335.413788 
	C103.960892,333.196716 102.771576,330.143066 102.982895,327.507172 
	C103.152039,325.397278 103.167267,323.275116 103.337662,320.648926 
	C106.184395,320.558258 107.059593,322.810181 108.008942,324.934052 
	C113.943130,338.210022 121.137589,350.724670 130.207916,362.134094 
	C131.747223,364.070343 133.318604,366.096039 133.232330,369.203003 
	C132.296494,372.673126 134.385941,376.515472 130.366791,378.999023 
	C122.175293,371.033173 115.733490,361.943695 109.798607,352.453339 
	C106.452538,347.102753 103.645302,341.488770 100.941360,335.413788 
z"/>
<path fill="#FE5A87" opacity="1.000000" stroke="none" 
	d="
M350.644440,406.632751 
	C351.546906,409.717102 352.139435,412.550323 352.889526,415.745056 
	C338.223877,424.460236 322.609589,430.730225 305.451477,434.067688 
	C302.218597,432.033722 302.485077,429.056702 302.849915,425.686646 
	C304.050964,423.397644 305.875092,422.639496 307.815552,422.094910 
	C320.748962,418.465149 333.271576,413.794983 345.155212,407.479004 
	C346.749817,406.631439 348.393829,405.729095 350.644440,406.632751 
z"/>
<path fill="#FE848A" opacity="1.000000" stroke="none" 
	d="
M215.332809,431.638733 
	C198.620010,428.167175 183.846161,420.809753 169.319092,411.987396 
	C167.000916,408.959229 166.365173,405.850952 167.585815,402.082428 
	C169.444107,399.630157 171.456009,400.331604 173.158096,401.357849 
	C186.424622,409.356506 200.359634,415.871155 215.104401,420.647675 
	C216.364594,421.055878 217.546906,421.711761 218.426422,423.290741 
	C218.255203,426.495422 218.139130,429.408752 215.332809,431.638733 
z"/>
<path fill="#FE6888" opacity="1.000000" stroke="none" 
	d="
M305.620056,282.090454 
	C305.770172,284.916107 306.548126,287.738983 305.137177,290.730072 
	C302.232391,293.490326 299.488770,291.976349 297.092804,290.830139 
	C293.239777,288.986847 290.560272,289.698639 287.493622,292.714569 
	C284.059296,296.092041 280.198700,299.671753 274.269653,297.404663 
	C272.744080,294.793823 273.034851,292.242615 272.971436,289.311035 
	C272.815948,288.397308 272.770966,287.742615 273.134674,287.527130 
	C277.209259,285.113098 275.644470,282.820007 273.023254,280.176239 
	C273.006653,277.151245 273.014801,274.469543 273.032623,271.336700 
	C284.032349,273.853912 294.607727,278.022156 305.620056,282.090454 
z"/>
<path fill="#FF928B" opacity="1.000000" stroke="none" 
	d="
M168.984985,400.815613 
	C168.990829,404.432098 168.994553,407.689301 168.997314,411.390259 
	C154.330841,403.231110 141.844635,391.994934 130.083862,379.424500 
	C131.817657,376.164337 130.234314,372.615112 131.866852,369.271057 
	C134.443558,368.095795 135.945419,369.624481 137.291260,370.989838 
	C146.561874,380.394775 155.994064,389.606750 166.817657,397.265747 
	C167.907745,398.037109 168.772430,399.046387 168.984985,400.815613 
z"/>
<path fill="#FF9C8C" opacity="1.000000" stroke="none" 
	d="
M104.492538,192.097656 
	C100.229042,188.541809 103.189857,183.549973 101.148346,179.271851 
	C106.463219,164.996323 114.926376,152.835052 124.579613,141.082443 
	C128.017563,140.634995 128.652710,142.809845 128.963043,145.155029 
	C129.150726,146.573486 128.762283,148.050323 129.347870,149.852631 
	C129.515076,152.793976 127.919342,154.617447 126.600670,156.460907 
	C119.558128,166.306076 113.625877,176.778244 108.559525,187.758102 
	C107.735947,189.542953 107.035446,191.478760 104.492538,192.097656 
z"/>
<path fill="#FE6888" opacity="1.000000" stroke="none" 
	d="
M303.656372,424.865295 
	C304.343475,427.867523 304.682617,430.568268 305.030701,433.693024 
	C298.801239,436.476562 292.165771,436.993835 285.667999,437.885010 
	C277.491150,439.006531 269.204498,439.354889 260.460083,438.907288 
	C257.316833,436.451172 257.605652,433.617584 258.990021,430.233093 
	C260.649200,428.106354 262.622009,427.918884 264.630524,427.892944 
	C275.869934,427.747864 286.986511,426.554230 297.977295,424.158569 
	C299.736481,423.775116 301.589081,423.683960 303.656372,424.865295 
z"/>
<path fill="#FE7689" opacity="1.000000" stroke="none" 
	d="
M259.781128,429.773315 
	C259.997986,432.767090 259.998199,435.366974 259.997681,438.399963 
	C244.923279,438.684113 230.150818,436.526978 215.350983,432.011353 
	C215.727219,429.262085 215.179092,426.284729 217.767853,424.075165 
	C219.421005,422.249878 221.227127,422.126343 223.071747,422.594086 
	C234.044678,425.376831 245.281006,426.495636 256.463867,427.953583 
	C257.658417,428.109314 258.712250,428.509521 259.781128,429.773315 
z"/>
<path fill="#FF928B" opacity="1.000000" stroke="none" 
	d="
M128.389496,151.203369 
	C126.450447,148.056686 128.111588,144.169632 125.210800,141.160797 
	C133.873932,129.421158 144.389130,119.500359 156.606705,110.933960 
	C159.989746,113.042091 159.100174,116.357254 159.408630,119.706467 
	C159.076004,122.223732 157.696732,123.682137 156.191895,124.986580 
	C147.795120,132.265121 139.903625,140.039200 132.750473,148.554550 
	C131.688110,149.819229 130.541458,151.054672 128.389496,151.203369 
z"/>
<path fill="#FE898B" opacity="1.000000" stroke="none" 
	d="
M158.302551,121.046188 
	C157.571152,117.808250 156.664642,114.846886 156.970245,111.313484 
	C166.269257,102.781235 177.180649,97.336571 188.529449,91.978424 
	C193.035873,92.446083 193.041443,95.289581 192.503586,98.816544 
	C192.114151,101.876221 190.129959,103.148697 188.076263,104.262802 
	C179.479889,108.926247 171.036621,113.825623 163.190491,119.701004 
	C161.872040,120.688293 160.420822,121.570541 158.302551,121.046188 
z"/>
<path fill="#FE7389" opacity="1.000000" stroke="none" 
	d="
M223.833389,80.382370 
	C230.012070,77.437653 236.617722,76.864899 243.036453,76.199181 
	C249.988785,75.478134 257.005554,74.273506 264.536102,75.096436 
	C268.054810,78.017502 266.793335,80.918709 264.822998,84.201965 
	C260.521606,87.396576 255.841217,85.924965 251.489120,86.430458 
	C243.773621,87.326614 236.172485,89.168480 227.937820,89.160713 
	C224.579849,87.058968 223.674561,84.163040 223.833389,80.382370 
z"/>
<path fill="#FE7E8A" opacity="1.000000" stroke="none" 
	d="
M223.474457,79.977051 
	C226.629807,81.591316 226.110748,84.633347 226.977203,87.460701 
	C226.571884,89.694580 225.121536,90.477005 223.515152,90.981873 
	C214.246414,93.894882 205.012161,96.904289 195.968277,100.469772 
	C194.556458,101.026375 193.113022,101.280167 191.340714,100.389038 
	C190.899307,97.486732 191.441818,94.713013 189.172806,92.206573 
	C199.633392,86.097878 211.228989,82.701508 223.474457,79.977051 
z"/>
<path fill="#FE6888" opacity="1.000000" stroke="none" 
	d="
M264.244202,84.246124 
	C264.330841,81.215187 264.664337,78.597282 264.997314,75.573524 
	C274.969238,74.294907 284.748505,76.260406 294.818176,77.530762 
	C295.018158,80.320679 294.998779,82.762375 294.970398,85.661415 
	C293.774139,87.809120 292.003052,88.193703 290.148804,88.002617 
	C282.473114,87.211632 274.824097,86.146988 267.094696,85.939781 
	C266.087402,85.912788 265.218628,85.372978 264.244202,84.246124 
z"/>
<path fill="#FD4785" opacity="1.000000" stroke="none" 
	d="
M404.034363,316.697266 
	C403.826874,316.853210 403.556549,316.701263 403.157166,316.324371 
	C403.312683,316.249207 403.627136,316.345856 404.034363,316.697266 
z"/>
<path fill="#000000" opacity="1.000000" stroke="none" 
	d="
M263.536621,83.904251 
	C274.101990,83.497383 284.050873,85.310638 294.520813,86.066162 
	C301.739594,87.969269 308.502106,89.880768 315.305573,91.633240 
	C317.353790,92.160820 318.300842,92.450340 317.145599,95.010811 
	C315.298828,99.103973 314.173065,103.517647 312.618042,107.750084 
	C312.135834,109.062553 311.516663,110.702911 309.487518,109.810074 
	C303.831024,107.321190 297.648529,106.798203 291.399078,105.098938 
	C288.473785,107.847778 285.409149,106.655975 282.517883,106.258469 
	C274.243378,105.120850 265.909363,105.288338 257.161621,104.932251 
	C246.037231,106.451614 235.279114,107.616882 224.417358,110.489426 
	C214.929825,113.195381 206.039322,116.393822 197.559891,120.659294 
	C195.331421,121.780304 193.070541,122.820251 190.452255,123.930016 
	C181.004898,129.608215 172.479355,135.985306 163.642090,142.425537 
	C163.006287,142.732330 162.289032,142.511810 162.445587,143.605240 
	C162.365692,144.095108 162.288971,144.289612 162.001221,144.731995 
	C150.642014,154.673065 141.980179,166.408386 133.813904,179.036194 
	C122.997650,199.285370 115.021530,220.162537 113.340767,242.863083 
	C111.426285,268.720215 114.740509,293.861359 125.330322,317.834686 
	C128.354721,324.681396 132.153915,331.098083 135.547150,338.151886 
	C144.251129,350.961609 153.842300,362.509796 165.525421,372.683960 
	C174.814392,380.644318 184.707291,387.067719 195.587051,392.667297 
	C206.884750,398.235046 218.322098,402.361481 230.562347,405.424561 
	C241.311951,407.185211 251.640060,409.075745 262.614410,409.111786 
	C274.547913,409.116699 285.914948,407.705505 297.628723,405.687866 
	C309.721008,402.685120 321.023743,398.649200 332.324036,393.489075 
	C344.394562,387.461853 355.229828,380.255035 365.033661,371.518524 
	C366.622345,370.102814 367.963104,368.300323 370.690430,368.099701 
	C384.305939,356.561127 394.311676,342.575012 402.015808,326.478241 
	C407.243805,327.831512 412.432465,329.585938 417.649994,331.249847 
	C419.974579,331.991211 420.016418,333.224701 418.995697,335.165649 
	C412.140076,348.202454 404.096466,360.413910 394.024261,371.643372 
	C387.405914,379.295410 380.226166,385.890717 372.545776,391.950409 
	C365.817322,397.259003 358.893219,402.278259 351.111938,406.570007 
	C340.751617,412.445679 330.232300,417.311798 319.180420,420.931122 
	C314.449615,422.480347 309.599976,423.666656 304.404327,425.092346 
	C296.424103,426.786316 288.862885,428.336670 281.107513,429.147491 
	C274.364777,429.852448 267.656494,429.882050 260.460541,430.092896 
	C246.102859,429.486084 232.447952,427.209290 218.524109,423.973999 
	C206.489304,420.078400 194.957062,415.948364 184.202621,409.990814 
	C179.259338,407.252441 174.061203,404.900848 169.333435,401.197052 
	C155.333542,392.300415 144.013733,380.779053 132.427826,369.086792 
	C127.861954,362.902618 123.427940,356.957031 119.385666,350.756042 
	C113.213440,341.287628 108.240349,331.166962 103.681892,320.428741 
	C100.002014,309.563141 96.376060,299.033203 94.521744,288.033478 
	C91.830750,272.070740 91.277344,256.080475 92.807167,239.890198 
	C94.146439,225.716675 97.267693,212.091644 101.979744,198.745071 
	C102.675507,196.774353 103.334038,194.790497 104.063904,192.426056 
	C110.169464,179.219543 116.508263,166.569275 124.918015,155.063965 
	C125.802444,153.853973 126.842575,152.859970 127.903931,151.424225 
	C135.772034,141.422882 144.136307,132.347260 153.871689,124.597809 
	C155.149933,123.580315 156.208359,122.286682 157.679504,120.972427 
	C168.338120,113.218193 178.976608,106.086578 190.878647,100.434433 
	C202.542404,95.426773 214.249466,91.331261 226.607880,87.912811 
	C238.949234,85.844955 250.868896,83.566826 263.536621,83.904251 
z"/>
<path fill="#000000" opacity="1.000000" stroke="none" 
	d="
M273.827271,297.467346 
	C280.366669,296.724060 285.043365,293.244904 288.729584,288.575470 
	C290.390411,286.471588 291.826172,286.638458 293.743591,287.304657 
	C297.207703,288.508331 300.653259,289.765533 304.495239,291.020355 
	C312.175751,293.828644 319.467621,296.617004 326.838257,299.435455 
	C323.279846,305.406525 321.830719,311.516876 323.712860,318.287994 
	C326.084045,326.818390 332.530792,330.556427 340.621155,332.898682 
	C352.212616,334.327423 362.492432,326.893158 364.068451,316.323090 
	C364.807709,311.364685 367.830200,313.809906 370.648010,314.815674 
	C377.519775,317.203156 383.914917,319.958862 390.570190,321.745300 
	C394.132324,322.701447 393.832916,323.740448 392.392090,326.184967 
	C386.031342,336.976715 379.184631,347.400543 370.087830,356.573486 
	C368.102417,362.369263 363.789276,365.833588 359.592834,369.369385 
	C351.548920,376.146942 342.766083,381.854034 333.335388,387.273193 
	C322.309174,392.971588 311.315369,397.674133 298.967529,399.865967 
	C287.261841,403.240265 275.766449,404.839233 263.544312,403.903442 
	C252.283539,404.569458 241.692780,403.352661 230.969086,399.880676 
	C218.525940,397.343048 207.110550,393.257629 196.246918,386.679169 
	C184.909348,381.343567 175.124100,374.435516 166.222900,365.650269 
	C157.776031,359.518372 152.093964,351.313232 145.984894,343.536560 
	C142.629333,339.265076 139.221954,334.942078 137.078217,329.409607 
	C127.856506,315.196136 122.799873,299.755280 120.033684,283.640594 
	C114.852608,253.457840 117.725227,224.127701 130.882248,196.147644 
	C131.870956,194.045044 132.481262,191.773880 133.940720,189.456940 
	C137.762634,183.960709 140.334747,178.168030 144.069046,173.060242 
	C149.383148,165.791595 154.964661,158.772949 161.682892,152.231964 
	C170.782837,143.470688 180.316193,135.883759 191.455872,129.816132 
	C202.056335,123.306015 213.090408,118.743118 225.068878,115.359177 
	C235.011108,112.538429 244.684158,110.447327 255.112488,110.150620 
	C265.208374,109.471466 274.833771,109.579529 284.434937,110.926865 
	C286.349274,111.195503 287.919189,111.937340 289.644562,113.529640 
	C294.720795,114.909927 299.483246,115.840904 304.151093,117.117798 
	C306.812073,117.845703 308.866669,118.505501 307.236786,122.739113 
	C302.379456,135.356171 298.347809,148.291122 293.975189,161.493683 
	C288.514496,174.301575 284.700806,187.312302 280.077148,200.026993 
	C276.211945,210.656021 272.675812,221.404709 268.975433,232.493164 
	C267.761383,235.652557 266.206787,238.324127 265.444122,241.205353 
	C263.794861,247.436081 261.096039,252.095306 255.123993,255.863129 
	C248.021851,260.343903 244.969147,268.545349 246.218887,276.936981 
	C247.686569,286.791992 253.629837,293.817505 263.398376,296.923431 
	C266.662659,297.961365 270.115997,298.525757 273.827271,297.467346 
z"/>
<path fill="#FE6B88" opacity="1.000000" stroke="none" 
	d="
M289.998718,113.427818 
	C278.694092,112.228882 267.334900,111.641792 255.461731,111.907532 
	C252.329315,109.039421 252.685379,106.362320 255.653931,103.469513 
	C267.452637,102.397896 278.812500,103.376663 290.566956,105.095100 
	C290.665161,107.784630 290.332306,110.403107 289.998718,113.427818 
z"/>
<path fill="#000000" opacity="1.000000" stroke="none" 
	d="
M272.618042,279.898560 
	C275.240967,281.753174 278.648682,281.106262 280.819641,283.351227 
	C278.979065,286.069794 276.587555,287.838196 273.131378,288.561523 
	C263.541168,290.545502 254.337402,281.815643 255.139374,272.924255 
	C260.317841,276.535614 266.639862,277.370697 272.618042,279.898560 
z"/>
<path fill="#FD5186" opacity="1.000000" stroke="none" 
	d="
M332.110596,386.061218 
	C345.804596,377.791779 358.659790,368.894470 369.646851,357.014160 
	C370.272308,360.361298 369.391602,363.930725 370.882629,367.724304 
	C363.393402,377.252747 353.443848,383.497742 343.545410,389.787506 
	C340.691864,391.600769 337.652191,393.121185 334.345581,394.804749 
	C330.904266,392.619690 332.103760,389.428253 332.110596,386.061218 
z"/>
<path fill="#000000" opacity="1.000000" stroke="none" 
	d="
M338.516296,303.023560 
	C343.021149,304.689117 347.077820,306.576996 351.308594,307.914062 
	C355.415375,309.211945 356.705841,311.197662 355.073792,315.419250 
	C352.852783,321.164215 348.876984,323.979218 341.456573,323.931335 
	C334.407776,320.937469 331.265625,316.338257 332.053314,310.136108 
	C332.503723,306.589478 334.167236,303.716217 338.516296,303.023560 
z"/>
<path fill="#FF9A8C" opacity="1.000000" stroke="none" 
	d="
M136.147614,188.606781 
	C131.439743,200.529846 126.067070,211.763229 123.473526,224.002899 
	C120.011559,240.340912 119.117020,256.727814 120.833488,273.428528 
	C122.600060,290.616730 127.836594,306.595947 135.045425,322.083954 
	C136.058823,324.261261 137.520950,326.229736 138.804260,328.646545 
	C137.724640,330.803833 138.216919,332.811981 138.103455,334.744110 
	C137.978912,336.865082 138.041626,339.072876 135.289734,340.128967 
	C123.418839,323.064636 116.917107,304.186493 112.902489,284.211700 
	C110.129265,270.413452 110.290283,256.477966 111.247520,242.734314 
	C112.853867,219.670883 120.249252,198.107483 132.571747,178.091492 
	C136.755173,179.867569 137.356735,181.737747 136.147614,188.606781 
z"/>
<path fill="#FF928B" opacity="1.000000" stroke="none" 
	d="
M135.031097,340.370178 
	C136.507111,338.288971 135.876831,336.108734 135.992676,334.077271 
	C136.101120,332.175415 135.784409,330.119934 138.473328,329.096741 
	C146.235703,342.029358 155.834702,353.326599 166.679916,364.030518 
	C168.516983,367.624329 168.845428,370.919708 165.368240,373.951996 
	C158.626648,370.850220 154.539703,365.053619 149.817581,360.096008 
	C144.239471,354.239746 139.306274,347.725739 135.031097,340.370178 
z"/>
<path fill="#FF928B" opacity="1.000000" stroke="none" 
	d="
M136.435104,188.904663 
	C134.168579,185.810440 134.926392,181.876236 133.141190,178.243530 
	C135.381256,170.781174 140.700745,165.434418 145.119720,159.583664 
	C149.649796,153.585846 154.833618,148.039276 160.871201,143.375778 
	C165.814285,145.450302 163.676605,149.017731 163.184143,152.619385 
	C153.127579,164.143723 143.822433,175.629486 136.435104,188.904663 
z"/>
<path fill="#FE6087" opacity="1.000000" stroke="none" 
	d="
M331.830444,385.774658 
	C335.138367,387.848572 333.602600,391.109314 333.994812,394.384949 
	C323.111298,400.215454 311.906555,404.694244 299.519440,407.031006 
	C295.326630,404.894592 295.180115,403.357697 298.662537,398.504333 
	C310.253174,395.181213 321.125153,391.173004 331.830444,385.774658 
z"/>
<path fill="#FE7E8A" opacity="1.000000" stroke="none" 
	d="
M195.663422,385.132996 
	C205.361984,388.916046 214.391388,393.608032 224.293076,396.259094 
	C225.902725,396.690063 227.989365,396.250641 229.646469,397.993988 
	C232.619934,400.622925 232.637100,403.336426 230.396240,406.533417 
	C222.848373,406.394226 216.302750,403.670471 209.730026,401.218872 
	C204.792648,399.377289 200.082733,396.925873 195.112045,394.427002 
	C193.663956,391.148987 193.212250,388.220886 195.663422,385.132996 
z"/>
<path fill="#FE898B" opacity="1.000000" stroke="none" 
	d="
M195.892975,384.562744 
	C195.801453,387.703674 196.479706,390.611786 195.116226,393.728455 
	C183.736023,389.654480 174.195984,382.627197 165.089355,374.428589 
	C165.586212,371.055298 166.210556,367.992218 166.911697,364.553253 
	C175.524307,371.525146 184.453079,378.326630 194.331406,383.802094 
	C194.751816,384.035126 195.264664,384.101379 195.892975,384.562744 
z"/>
<path fill="#FE898B" opacity="1.000000" stroke="none" 
	d="
M163.361298,152.975769 
	C161.432159,150.427994 162.459259,147.272827 161.321991,144.050888 
	C161.142044,143.629227 161.067825,143.685196 161.030045,143.658142 
	C161.182297,143.353058 161.372345,143.075027 161.756073,142.330475 
	C170.120834,134.811066 178.762070,128.421844 188.574280,123.090164 
	C193.957474,123.497932 193.176208,126.830894 192.230148,130.615631 
	C186.539185,135.684860 179.888474,138.819534 174.533173,143.799042 
	C171.089203,147.001328 167.306641,149.839462 163.361298,152.975769 
z"/>
<path fill="#FE7E8A" opacity="1.000000" stroke="none" 
	d="
M192.479370,131.019821 
	C189.882904,128.947327 192.209686,125.313614 189.211166,123.159836 
	C199.314011,116.663292 210.479538,112.166672 222.605164,109.095291 
	C225.443420,110.995781 225.552338,113.573509 225.194336,116.659828 
	C214.099594,121.101494 203.205185,125.429817 192.479370,131.019821 
z"/>
<path fill="#FE6888" opacity="1.000000" stroke="none" 
	d="
M298.593628,398.106262 
	C298.964508,400.939758 297.038391,403.625610 298.865295,406.762634 
	C287.612640,410.429382 275.834900,411.300140 263.461609,410.907104 
	C260.403107,408.383392 260.318817,405.709442 262.642578,402.509399 
	C273.781128,402.321869 284.417786,400.997192 294.983124,398.984283 
	C296.072205,398.776794 297.121979,398.362854 298.593628,398.106262 
z"/>
<path fill="#FE7389" opacity="1.000000" stroke="none" 
	d="
M262.541077,402.095398 
	C262.999023,404.766571 262.999207,407.366638 262.999115,410.399963 
	C252.018875,411.580231 241.302704,409.983978 230.359222,407.016602 
	C229.998276,404.233154 229.998260,401.633270 229.997528,398.600220 
	C236.837234,398.968445 243.509232,400.721039 250.403931,401.417877 
	C254.318329,401.813507 258.208771,401.595703 262.541077,402.095398 
z"/>
<path fill="#FE7689" opacity="1.000000" stroke="none" 
	d="
M225.523224,117.026443 
	C222.835342,115.154587 222.982452,112.540985 222.999603,109.566231 
	C230.469971,105.834740 238.554367,105.159111 246.494659,104.165497 
	C249.368622,103.805862 252.202057,102.882538 255.571381,103.094879 
	C255.664902,105.784462 255.332123,108.402916 254.998749,111.427490 
	C245.209122,112.989494 235.558838,114.924858 225.523224,117.026443 
z"/>
<path fill="#FF928B" opacity="1.000000" stroke="none" 
	d="
M161.648132,141.985199 
	C161.844269,142.186630 161.738785,142.509354 161.312775,143.231567 
	C160.303925,142.935501 161.079163,142.579987 161.648132,141.985199 
z"/>
<path fill="#FE7689" opacity="1.000000" stroke="none" 
	d="
M252.277588,188.509872 
	C234.041382,189.620346 221.795242,177.039536 221.254486,160.380859 
	C220.780640,145.782745 232.313828,130.945602 250.557648,132.094788 
	C253.476044,134.207397 253.305511,136.824646 252.446320,139.937073 
	C251.253418,142.346939 249.311615,142.671921 247.335190,143.113312 
	C238.862823,145.005325 232.929825,151.644653 232.523300,159.559677 
	C232.126724,167.280640 237.689438,174.446411 246.082825,177.019073 
	C247.977219,177.599716 249.916306,178.074295 251.739487,179.712692 
	C253.334457,182.662628 253.680008,185.374100 252.277588,188.509872 
z"/>
<path fill="#FE7E8A" opacity="1.000000" stroke="none" 
	d="
M225.714188,351.776978 
	C218.341507,359.793976 201.547195,356.234772 198.894150,344.880035 
	C198.163239,341.751801 195.571930,339.431061 194.637619,336.247864 
	C192.556213,329.156403 195.462250,321.852295 202.036758,318.447540 
	C208.535126,315.082214 217.014404,316.967407 221.246857,322.547363 
	C222.640274,324.384369 224.250870,326.174744 226.097855,327.528442 
	C232.810577,332.448242 232.968338,346.587433 225.714188,351.776978 
z"/>
<path fill="#FE6D88" opacity="1.000000" stroke="none" 
	d="
M252.393280,188.899506 
	C251.142731,186.285110 250.835312,183.666351 250.998932,180.576843 
	C251.513641,178.073898 253.292709,177.526779 254.996597,176.852112 
	C262.642609,173.824600 267.644928,168.316589 267.355530,160.015823 
	C267.084137,152.231125 263.072601,146.211609 255.016525,143.763962 
	C253.608246,143.336121 252.183411,142.782944 251.120407,141.168045 
	C250.998260,138.233597 250.998642,135.633041 250.998459,132.599304 
	C264.912506,130.951660 277.286316,144.137039 278.199219,156.557968 
	C279.119415,169.077866 274.627930,178.160690 264.530060,184.939209 
	C260.988983,187.316299 256.769012,187.813202 252.393280,188.899506 
z"/>
<path fill="#FE898B" opacity="1.000000" stroke="none" 
	d="
M161.663971,195.482513 
	C177.186234,194.417877 188.635086,206.227005 189.999557,219.159653 
	C191.932587,237.481506 176.352921,250.470428 162.435120,248.908463 
	C159.516602,246.772537 159.680725,244.148911 160.574371,241.018433 
	C161.765884,238.607666 163.745499,238.306229 165.683105,237.769089 
	C173.597244,235.575073 178.625977,229.802017 178.837128,222.823364 
	C179.055786,215.596893 174.355759,209.507324 166.511856,206.715347 
	C164.670425,206.059906 162.583038,205.844757 160.986984,203.824677 
	C159.751328,200.824417 159.317062,198.221024 161.663971,195.482513 
z"/>
<path fill="#FF928B" opacity="1.000000" stroke="none" 
	d="
M161.590149,195.094452 
	C161.997879,197.766403 161.998291,200.366821 161.997986,203.400665 
	C161.289963,206.046677 159.203735,206.444672 157.460556,207.327545 
	C151.255997,210.469986 146.969452,215.224213 147.269150,222.446243 
	C147.559753,229.449448 151.309036,234.527695 158.011246,237.176270 
	C159.384613,237.718994 160.823883,238.214310 161.875565,239.832092 
	C161.997711,242.766479 161.998230,245.367004 161.998108,248.400757 
	C149.242523,249.863098 137.745438,238.804230 136.106079,225.965118 
	C134.045807,209.829498 144.871582,196.893005 161.590149,195.094452 
z"/>
<path fill="#FE6588" opacity="1.000000" stroke="none" 
	d="
M282.669128,345.479004 
	C293.468201,343.020996 303.915344,353.867157 304.025970,363.566803 
	C304.170227,376.209869 295.984161,384.997070 283.420227,384.906799 
	C280.505768,382.824890 280.774200,380.177155 281.466125,377.099121 
	C282.625458,374.489624 284.862366,373.975647 286.790253,373.117065 
	C290.501740,371.464020 292.697052,368.647461 292.604095,364.650116 
	C292.511200,360.655914 290.194336,357.864471 286.427521,356.418121 
	C284.882568,355.824921 283.231842,355.462341 281.923889,353.715881 
	C280.732086,350.739807 280.348358,348.167938 282.669128,345.479004 
z"/>
<path fill="#FE7989" opacity="1.000000" stroke="none" 
	d="
M246.902252,372.414490 
	C249.017883,375.686005 248.366974,378.386749 245.354126,379.712280 
	C242.709366,380.875854 240.267487,379.855347 238.915085,376.862061 
	C238.396454,375.714233 237.307648,374.762024 236.320404,373.902435 
	C234.841949,372.615295 233.948486,372.219574 232.868774,374.802521 
	C229.324203,383.281921 216.749908,386.058929 209.723709,380.261841 
	C207.716690,378.605927 207.426178,376.480377 208.328384,374.464111 
	C209.273102,372.352844 211.189682,371.339386 213.686493,372.284027 
	C215.349472,372.913177 217.019089,373.643341 218.752228,373.940674 
	C221.340576,374.384735 223.560654,373.978271 224.597733,370.904633 
	C229.123154,357.492523 236.477768,361.090576 243.695511,368.246704 
	C244.837219,369.378632 245.673553,370.818573 246.902252,372.414490 
z"/>
<path fill="#FE6B88" opacity="1.000000" stroke="none" 
	d="
M282.914795,375.832825 
	C282.998962,378.767212 282.999359,381.367401 282.999359,384.400696 
	C272.387390,385.321960 264.269653,374.244537 263.791016,367.194458 
	C262.858337,353.456085 272.967010,344.720306 282.588074,345.095062 
	C282.999237,347.766724 282.999359,350.366821 282.999084,353.400391 
	C282.540375,355.658691 280.891846,356.268341 279.581879,357.261505 
	C273.385529,361.959473 273.527191,368.312439 279.939941,372.850708 
	C281.030823,373.622742 282.223022,374.224091 282.914795,375.832825 
z"/>
<path fill="#FE6588" opacity="1.000000" stroke="none" 
	d="
M301.328125,316.861084 
	C298.701752,317.575439 298.440735,320.153748 297.102112,321.892792 
	C294.086792,325.810089 286.512054,329.158264 281.948120,327.921509 
	C279.115326,327.153870 277.650757,325.472473 277.917206,322.165375 
	C278.211975,318.506714 280.601868,318.953766 282.895782,319.014557 
	C287.105072,319.126038 290.163391,317.167328 291.729095,313.462799 
	C293.302795,309.739380 293.886414,305.277893 299.124664,305.048218 
	C304.215088,304.824982 306.640961,308.984467 309.507690,312.142578 
	C310.772949,313.536469 311.426178,315.491821 312.460083,317.148254 
	C313.753662,319.220734 313.497284,321.769104 311.151855,323.262024 
	C308.754944,324.787628 306.378571,324.396973 304.642609,322.057495 
	C303.491730,320.506500 302.604584,318.759766 301.328125,316.861084 
z"/>
<path fill="#FF8C8B" opacity="1.000000" stroke="none" 
	d="
M176.188644,266.966888 
	C178.916824,266.950775 181.624252,266.602325 182.770020,268.922638 
	C183.452713,270.305176 183.771408,272.704163 182.281097,274.074646 
	C180.270920,275.923248 178.088699,276.223053 175.132462,275.218292 
	C170.239517,273.555206 168.415314,275.580780 168.968063,280.739349 
	C169.372055,284.509735 168.725067,287.875549 165.001877,290.030457 
	C160.765015,292.482666 156.339859,292.802094 151.872940,291.230011 
	C149.940628,290.549927 149.861923,288.449951 149.992050,286.519592 
	C150.154892,284.104309 152.256699,283.699310 153.776550,283.230377 
	C155.599854,282.667847 157.680801,282.940338 160.066330,282.832428 
	C158.181976,278.039307 156.455154,273.122559 161.156631,269.486115 
	C165.396194,266.206940 170.384659,264.898041 176.188644,266.966888 
z"/>
<path fill="#FE848A" opacity="1.000000" stroke="none" 
	d="
M181.816498,158.564484 
	C182.032501,160.442749 181.889404,161.980820 182.220230,163.409134 
	C182.924713,166.450668 184.094955,168.238571 187.975143,166.653122 
	C191.887573,165.054489 196.133530,165.234985 199.267059,168.823013 
	C202.075272,172.038544 202.920929,180.546143 201.101898,183.739456 
	C200.178955,185.359695 198.797867,186.077637 197.156036,185.902344 
	C195.331390,185.707550 193.790497,184.594711 193.356094,182.735840 
	C192.985626,181.150497 193.153809,179.446533 192.979706,177.806076 
	C192.788498,176.004578 192.450272,174.960190 189.907867,175.477036 
	C178.752045,177.744843 173.396591,173.358917 172.971802,162.122925 
	C172.878967,159.667664 172.985321,157.270813 175.558563,156.258102 
	C177.909546,155.332886 180.119385,155.985046 181.816498,158.564484 
z"/>
<path fill="#FE7389" opacity="1.000000" stroke="none" 
	d="
M247.220612,220.662201 
	C243.410339,220.687103 240.006821,221.351288 236.703049,222.644348 
	C234.129349,223.651657 231.518799,223.257874 230.353836,220.580139 
	C229.130173,217.767517 230.654724,215.726196 233.269852,214.284927 
	C241.060669,209.991226 248.809799,210.273178 256.203461,214.887726 
	C258.512268,216.328720 259.810730,216.088638 261.189758,214.284012 
	C263.528381,211.223694 266.405182,211.182114 268.728241,213.657379 
	C270.912811,215.985107 270.242615,218.499817 267.725616,220.893921 
	C262.309326,226.045776 257.438751,226.691849 251.032242,222.589066 
	C249.949921,221.895935 248.698013,221.467621 247.220612,220.662201 
z"/>
<path fill="#000000" opacity="1.000000" stroke="none" 
	d="
M250.571487,140.905304 
	C261.786194,141.906006 269.368195,149.410721 269.992432,159.635086 
	C270.460114,167.295410 263.088867,177.233780 255.443527,178.897690 
	C254.158371,179.177399 253.014069,179.719772 251.382874,180.085556 
	C238.483917,178.841873 232.331955,172.943024 230.107742,160.910858 
	C228.331146,151.299988 238.857788,141.058929 250.571487,140.905304 
z"/>
<path fill="#000000" opacity="1.000000" stroke="none" 
	d="
M202.154907,330.355957 
	C205.881241,326.011780 210.158493,323.651184 215.637924,324.012787 
	C220.912384,324.360901 223.614059,326.903687 223.922134,331.667206 
	C224.461823,340.011780 213.214035,348.465912 205.229309,345.717224 
	C199.245895,343.657501 198.076065,341.137268 199.910538,334.988281 
	C200.383621,333.402557 200.922256,331.944916 202.154907,330.355957 
z"/>
<path fill="#000000" opacity="1.000000" stroke="none" 
	d="
M162.417297,240.091553 
	C151.366623,239.211121 146.459946,232.013290 145.089951,224.191330 
	C143.847565,217.097931 148.440552,207.886429 158.011108,204.960922 
	C159.082031,204.633560 160.152817,204.305740 161.610474,203.906113 
	C173.613785,204.213135 179.776062,211.993347 180.983231,220.404495 
	C182.447769,230.608887 172.231461,241.279007 162.417297,240.091553 
z"/>
<path fill="#000000" opacity="1.000000" stroke="none" 
	d="
M283.389984,376.094116 
	C277.923645,374.942139 273.809479,372.486206 273.057983,366.862732 
	C272.172943,360.240173 275.438232,355.914185 282.625977,353.905701 
	C290.951691,353.429962 294.696198,359.541534 294.987244,364.486511 
	C295.348053,370.617279 290.958160,375.093506 283.389984,376.094116 
z"/>
</svg>